<?xml version="1.0" encoding="UTF-8"?>
<svg version="1.1" xmlns="http://www.w3.org/2000/svg" width="500" height="500">
<path d="M0 0 C0.8751828 0.00182281 1.7503656 0.00364563 2.65206909 0.00552368 C16.42973584 0.0536935 29.81186744 0.73112134 43.375 3.3125 C44.72924072 3.55395752 44.72924072 3.55395752 46.11083984 3.80029297 C82.80665421 10.44498644 117.28845522 25.37920961 147.375 47.3125 C147.95620605 47.7353125 148.53741211 48.158125 149.13623047 48.59375 C156.3826518 53.91070002 163.10885216 59.63478032 169.65625 65.78125 C171.95412963 67.92065518 174.29158807 69.9726899 176.6875 72 C180.65701068 75.45705336 183.99305015 79.28926225 187.375 83.3125 C188.17550781 84.22515625 188.97601563 85.1378125 189.80078125 86.078125 C219.62232663 120.23224491 239.10905892 161.76412485 247.375 206.3125 C247.53726074 207.13878906 247.69952148 207.96507812 247.86669922 208.81640625 C252.99259696 235.85829405 252.88519249 267.35067763 247.375 294.3125 C247.07698486 295.78348145 247.07698486 295.78348145 246.77294922 297.28417969 C236.08943924 348.32494872 211.09611852 400.65101461 170.33984375 434.65625 C168.09101885 436.55187974 165.96332185 438.55647897 163.8125 440.5625 C132.07785387 469.06580678 91.58606092 487.20566728 50.1875 496.0625 C49.26251709 496.26141846 48.33753418 496.46033691 47.38452148 496.6652832 C31.85489075 499.81883048 16.55611741 500.69004795 0.75 500.625 C-0.17220337 500.62317719 -1.09440674 500.62135437 -2.04455566 500.61947632 C-16.10071161 500.57277257 -29.79680724 500.02798169 -43.625 497.3125 C-44.49253906 497.15152832 -45.36007813 496.99055664 -46.25390625 496.82470703 C-92.07151693 488.14637138 -133.96396304 466.78183958 -168.296875 435.41796875 C-170.34929983 433.56183287 -172.44345709 431.77879008 -174.5625 430 C-213.01137173 396.33793559 -237.64337309 343.75190581 -246.625 294.3125 C-246.78726074 293.44318848 -246.94952148 292.57387695 -247.11669922 291.67822266 C-251.94220744 264.56275076 -251.77187315 234.35530617 -246.625 207.3125 C-246.38354248 205.95825928 -246.38354248 205.95825928 -246.13720703 204.57666016 C-235.15159022 143.90777346 -200.52444087 86.88741078 -150.625 50.3125 C-150.05571777 49.88775391 -149.48643555 49.46300781 -148.89990234 49.02539062 C-140.15549727 42.50714788 -131.08747662 36.72784811 -121.625 31.3125 C-120.50222656 30.65636719 -119.37945312 30.00023438 -118.22265625 29.32421875 C-82.42150549 9.22885966 -40.84025284 -0.1775642 0 0 Z " fill="#38B5FE" transform="translate(249.625,-0.3125)"/>
<path d="M0 0 C37.90240683 -2.21589795 75.94135497 13.67509963 104.33398438 38.17822266 C136.20781953 66.6973735 151.89953857 104.91630938 154.51757812 147.13916016 C155.54733783 186.51232534 139.58454069 225.08073838 113.07617188 253.76025391 C89.00310376 279.00525015 56.17896615 295.58162266 21.33398438 299.17822266 C20.31046875 299.28779297 19.28695312 299.39736328 18.23242188 299.51025391 C-7.27217325 301.93157623 -33.35284635 297.86447538 -56.66601562 287.17822266 C-57.31908691 286.88044922 -57.9721582 286.58267578 -58.64501953 286.27587891 C-68.35717992 281.79513106 -77.10320081 276.62538752 -85.66601562 270.17822266 C-86.56449219 269.50404297 -87.46296875 268.82986328 -88.38867188 268.13525391 C-106.77778183 253.70020883 -119.88126218 236.73701182 -130.66601562 216.17822266 C-131.38917969 214.81503906 -131.38917969 214.81503906 -132.12695312 213.42431641 C-142.66461869 191.97983139 -146.10063588 168.01878742 -145.703125 144.41894531 C-145.67167381 142.51987309 -145.65897509 140.62050465 -145.65039062 138.72119141 C-144.3847846 102.06381702 -125.46955071 67.32012864 -99.66601562 42.17822266 C-99.14265625 41.60974609 -98.61929688 41.04126953 -98.08007812 40.45556641 C-81.64993642 23.02020506 -58.21083343 12.11693655 -35.66601562 5.17822266 C-34.71339844 4.87787109 -33.76078125 4.57751953 -32.77929688 4.26806641 C-22.09903502 1.23615184 -11.02062275 0.73672661 0 0 Z " fill="#FCFDFE" transform="translate(245.666015625,99.82177734375)"/>
<path d="M0 0 C0.87019775 0.00082581 1.74039551 0.00165161 2.63696289 0.00250244 C19.19672026 0.03857455 35.30747117 1.07450501 51.375 5.3125 C51.375 5.6425 51.375 5.9725 51.375 6.3125 C49.50908203 6.64121094 49.50908203 6.64121094 47.60546875 6.9765625 C32.49255377 9.79067054 20.24814563 14.33465207 10.40234375 26.8125 C2.21605778 38.77038694 -0.11048487 51.3065264 1.66015625 65.6171875 C2.08464299 67.60362059 2.666439 69.40824231 3.375 71.3125 C3.705 72.24578125 4.035 73.1790625 4.375 74.140625 C8.41814478 84.72728042 13.58539391 91.66203894 23.140625 97.8046875 C25.153579 99.16307954 26.73478583 100.53382619 28.375 102.3125 C26.95844207 102.3397415 25.54172955 102.35900467 24.125 102.375 C22.94164062 102.39240234 22.94164062 102.39240234 21.734375 102.41015625 C19.375 102.3125 19.375 102.3125 17.5065918 101.81689453 C-8.65288504 95.62682705 -42.29977932 104.50800876 -65.625 116.3125 C-66.35170898 116.67859375 -67.07841797 117.0446875 -67.82714844 117.421875 C-78.71493297 122.99344918 -88.3017466 129.41515594 -97.625 137.3125 C-98.81029297 138.28703125 -98.81029297 138.28703125 -100.01953125 139.28125 C-123.92510856 159.39301677 -138.70364637 189.39817501 -145.625 219.3125 C-145.80901367 220.08561523 -145.99302734 220.85873047 -146.18261719 221.65527344 C-154.52853475 257.58950438 -145.61809159 298.14965144 -126.625 329.3125 C-124.07733047 333.15769507 -121.36610808 336.86969671 -118.59375 340.5546875 C-116.625 343.3125 -116.625 343.3125 -115.625 346.3125 C-118.09711325 345.32892386 -120.56439092 344.33781146 -123.01953125 343.3125 C-135.63083273 338.09684058 -148.4829127 335.63482682 -161.625 340.5 C-166.59619788 342.68487215 -171.24546095 345.0982485 -175.625 348.3125 C-176.21667969 348.72886719 -176.80835938 349.14523437 -177.41796875 349.57421875 C-185.85991823 356.07806062 -192.55357072 367.50196566 -194.0065918 378.09423828 C-194.15929596 380.9913826 -194.17902137 383.84948662 -194.125 386.75 C-194.11339844 388.26243286 -194.11339844 388.26243286 -194.1015625 389.80541992 C-193.93428775 396.97790547 -192.78717973 402.83285494 -189.625 409.3125 C-189.625 409.9725 -189.625 410.6325 -189.625 411.3125 C-196.06333267 408.8871007 -199.73660205 401.71084518 -203.625 396.3125 C-204.03556641 395.74337891 -204.44613281 395.17425781 -204.86914062 394.58789062 C-225.03425672 366.27854347 -238.18301618 333.8778143 -245.4375 300 C-245.7300769 298.64261719 -245.7300769 298.64261719 -246.02856445 297.2578125 C-249.14277685 281.80626372 -250.00622282 266.35160502 -249.9375 250.625 C-249.93567719 249.75231476 -249.93385437 248.87962952 -249.93197632 247.98049927 C-249.88376216 234.22156139 -249.20286161 220.85715323 -246.625 207.3125 C-246.38354248 205.95825928 -246.38354248 205.95825928 -246.13720703 204.57666016 C-235.15159022 143.90777346 -200.52444087 86.88741078 -150.625 50.3125 C-150.05571777 49.88775391 -149.48643555 49.46300781 -148.89990234 49.02539062 C-140.15549727 42.50714788 -131.08747662 36.72784811 -121.625 31.3125 C-120.50222656 30.65636719 -119.37945312 30.00023438 -118.22265625 29.32421875 C-82.41397409 9.22463225 -40.8454692 -0.16471519 0 0 Z " fill="#014BAD" transform="translate(249.625,-0.3125)"/>
<path d="M0 0 C1.6930603 -0.00542983 3.38611586 -0.0125573 5.0791626 -0.02124023 C9.6472039 -0.03937004 14.21488112 -0.03245025 18.78292823 -0.01972389 C23.57712214 -0.0095473 28.37128634 -0.01900199 33.16548157 -0.02526855 C41.21080078 -0.03252934 49.25597272 -0.02299635 57.30126953 -0.00390625 C66.59057252 0.01788169 75.87952456 0.01079087 85.16881913 -0.01121187 C93.16233621 -0.02938417 101.15574787 -0.03191592 109.14927894 -0.0214572 C113.91584355 -0.01523518 118.68224333 -0.01435145 123.44879723 -0.02760315 C127.92810829 -0.03918852 132.40696798 -0.0310871 136.88623047 -0.00802612 C138.52606775 -0.0027543 140.16594328 -0.00422659 141.80576515 -0.01307678 C151.16165135 -0.05890237 158.56326398 -0.07723675 166.02075195 6.22851562 C166.46676758 6.77765625 166.9127832 7.32679688 167.37231445 7.89257812 C168.06454102 8.70855469 168.06454102 8.70855469 168.77075195 9.54101562 C173.13861244 16.57966979 173.19568534 25.79762299 171.5324707 33.73632812 C169.47411679 39.09535607 165.80370099 44.10665279 160.64079285 46.70233154 C153.86416306 49.23859861 148.06593892 50.06488339 140.8605957 49.90820312 C139.85514206 49.90254333 138.84968842 49.89688354 137.81376648 49.89105225 C134.6452697 49.86890517 131.47796148 49.81875124 128.30981445 49.76757812 C126.14381532 49.74748507 123.97779821 49.72923926 121.81176758 49.71289062 C116.53988702 49.66911216 111.26868568 49.60242259 105.99731445 49.51757812 C105.8781794 50.41561913 105.8781794 50.41561913 105.75663757 51.33180237 C103.13270362 71.03784784 103.13270362 71.03784784 101.8293457 78.35742188 C99.14234927 93.99154507 98.61545142 109.30346514 98.62231445 125.14257812 C98.62059235 126.1703537 98.61887024 127.19812927 98.61709595 128.25704956 C98.61766095 131.23219015 98.63554947 134.20662063 98.66137695 137.18164062 C98.66377884 138.06091721 98.66618073 138.94019379 98.6686554 139.84611511 C98.92725531 157.26461457 103.33907372 177.85933739 115.99731445 190.51757812 C121.28717366 194.70538333 125.87238457 195.25324687 132.57543945 195.02929688 C139.95229728 193.92613663 146.55832903 190.52297632 151.62231445 185.01757812 C156.44906602 178.49226296 156.51400128 171.37777659 156.99731445 163.51757812 C161.12526424 163.70957579 162.67949412 164.20714897 165.68481445 167.14257812 C170.4883392 173.11809688 171.55561267 179.2810247 171.49731445 186.70507812 C171.49231934 187.54079346 171.48732422 188.37650879 171.48217773 189.23754883 C171.13935432 201.48816611 165.64332251 210.27725343 157.62231445 219.14257812 C145.10696094 230.46599321 131.30044056 235.89122487 114.49731445 235.83007812 C113.61172852 235.84619141 112.72614258 235.86230469 111.8137207 235.87890625 C101.12852323 235.88675148 92.28249301 232.26241362 83.99731445 225.51757812 C60.53296411 201.10653929 62.60465279 162.0972883 62.74731445 130.58007812 C62.74941925 129.41945862 62.75152405 128.25883911 62.75369263 127.06304932 C62.8077485 101.47295394 63.87218578 76.01912217 65.99731445 50.51757812 C46.69231445 50.02257812 46.69231445 50.02257812 26.99731445 49.51757812 C27.3259017 63.78130894 27.3259017 63.78130894 27.65942383 78.04492188 C27.79693125 83.8790349 27.93391288 89.71315631 28.06738281 95.54736328 C28.17526085 100.2612749 28.2858139 104.97511745 28.3980732 109.6889267 C28.44004373 111.46983457 28.48111753 113.25076386 28.52119255 115.03171539 C28.75150665 125.23692216 29.09186149 135.42559224 29.64796352 145.61875534 C30.06043541 153.23539508 30.25158526 160.84601415 30.29248047 168.47338867 C30.30407892 169.96664852 30.32465276 171.45986445 30.35400391 172.95288086 C30.63174907 187.25442953 29.05827993 201.44154009 22.05981445 214.20507812 C21.73819336 214.84123047 21.41657227 215.47738281 21.08520508 216.1328125 C18.09462096 221.86034146 14.55591875 226.9979258 8.87231445 230.33007812 C8.20973633 230.72839844 7.5471582 231.12671875 6.86450195 231.53710938 C0.65963734 234.79531234 -7.07883524 234.32925221 -13.69018555 232.45507812 C-22.67073485 228.99115197 -27.78455162 221.86627226 -32.00268555 213.51757812 C-36.62751822 199.64308011 -30.00393395 185.61532318 -23.9675293 173.27539062 C-22.96343875 171.27397271 -21.94637556 169.27966616 -20.92578125 167.28662109 C-14.55924846 154.84541314 -10.93049689 143.3386276 -9.3515625 129.46118164 C-9.09315304 127.28088571 -8.79982417 125.10466644 -8.48779297 122.93139648 C-6.9091135 111.58580179 -6.72694913 100.36690712 -6.796875 88.92358398 C-6.81522169 85.82397241 -6.81738314 82.72466052 -6.81713867 79.625 C-6.83616793 69.21225016 -7.02143119 58.89132235 -8.00268555 48.51757812 C-19.41643747 48.4291973 -29.77529223 49.57616233 -40.75268555 52.83007812 C-41.75106445 53.12599854 -42.74944336 53.42191895 -43.77807617 53.72680664 C-48.87447527 55.3174983 -53.6082245 57.15698927 -58.33129883 59.64526367 C-64.0802664 62.64571081 -69.5605994 63.92877511 -76.00268555 63.51757812 C-76.838538 60.65325448 -77.17252465 59.00306159 -76.17456055 56.15039062 C-68.69619465 42.9605255 -59.47718077 31.42230537 -49.00268555 20.51757812 C-48.42389648 19.86402344 -47.84510742 19.21046875 -47.2487793 18.53710938 C-43.70416303 14.6549106 -39.62394614 11.72049394 -35.25268555 8.83007812 C-34.70443115 8.46116455 -34.15617676 8.09225098 -33.59130859 7.7121582 C-22.83477795 0.86231288 -12.4081667 -0.06723959 0 0 Z " fill="#0228B1" transform="translate(187.002685546875,140.482421875)"/>
<path d="M0 0 C0.66 0.99 1.32 1.98 2 3 C0.35 6.3 -1.3 9.6 -3 13 C-4.23593891 9.29218328 -3.5678132 8.32489747 -2.0625 4.8125 C-1.68222656 3.91144531 -1.30195312 3.01039063 -0.91015625 2.08203125 C-0.60980469 1.39496094 -0.30945313 0.70789063 0 0 Z " fill="#CBD7EE" transform="translate(112,190)"/>
</svg>
